<svg xmlns="http://www.w3.org/2000/svg" viewBox="0 0 32 32">
  <path fill="#00ed64" d="M15.9.087l.854 1.604c.192.296.4.558.645.802.715.715 1.394 1.464 2.004 2.266 1.447 1.9 2.423 4.01 3.12 6.292.418 1.394.645 2.824.662 4.27.07 4.323-1.412 8.035-4.4 11.12-.488.488-1.01.94-1.57 1.342-.296 0-.436-.227-.558-.436-.227-.383-.366-.802-.436-1.217-.174-.975-.227-1.968-.192-2.96.07-2.358.436-4.648 1.13-6.886.087-.227.087-.435.017-.662-.174-.383-.4-.732-.627-1.097-.366-.558-.854-1.044-1.342-1.516-.488-.435-1.027-.835-1.516-1.287-.14-.122-.296-.227-.366-.435-.087.075-.105.14-.122.192-.174.436-.4.854-.54 1.307-.435 1.307-.627 2.648-.767 4.006-.087.784-.122 1.585-.174 2.358v.332c-.052.436-.087.872-.28 1.272-.192.383-.435.627-.846.627-.26 0-.488-.122-.627-.35-.28-.435-.435-.94-.505-1.464-.087-.663-.087-1.343-.052-2.006.07-1.464.296-2.892.662-4.323.366-1.394.714-2.824 1.55-4.084.017-.035.035-.07.07-.122.017-.03.052-.063.034-.105-.056-.087-.11-.122-.192-.122h-.035c-.244.052-.47.105-.697.192-.244.087-.47.227-.662.435-.244.244-.47.505-.662.784-.244.35-.435.697-.627 1.062-.392.697-.627 1.464-.767 2.24-.14.784-.192 1.585-.244 2.358-.052.907 0 1.797.105 2.704.017.14.035.244.052.366h-.052c-.244.052-.47-.035-.627-.244-.244-.332-.314-.732-.314-1.13-.017-.558.017-1.13.07-1.672v-.297c-.314.157-.593.297-.862.47-1.446.907-2.594 2.093-3.458 3.528-1.132 1.88-1.584 3.924-1.41 6.118.244 2.648 1.377 4.845 3.337 6.608 1.132 1.027 2.437 1.705 3.924 2.093.627.157 1.272.244 1.932.279h.575c.244 0 .488-.052.714-.087.68-.105 1.377-.244 2.04-.47 2.648-.906 4.674-2.595 6.084-4.962.418-.697.767-1.447 1.044-2.223.418-1.13.662-2.306.766-3.517v-.244h-.052c-.174.244-.314.505-.505.732-1.307 1.585-3.168 2.358-5.208 2.358h-.436c-.244-.035-.488-.052-.714-.105-1.377-.262-2.437-1.027-3.168-2.21-.244-.4-.435-.837-.558-1.272-.087-.383-.122-.784-.157-1.18v-.156l.105-.157c.21-.314.4-.645.627-.94.645-.906 1.377-1.672 2.306-2.223.14-.087.279-.157.453-.244l.075-.035c.157-.087.384-.157.558-.244.157-.087.384-.157.558-.21.174-.052.314-.105.47-.157.244-.087.453-.157.662-.244.174-.087.314-.157.47-.244.244-.122.453-.244.662-.366.192-.122.4-.244.575-.366.227-.157.453-.35.68-.505.244-.192.453-.4.662-.627.244-.244.453-.488.662-.767.244-.28.453-.575.627-.872.209-.366.383-.732.558-1.097.174-.4.314-.784.418-1.2v-.087c.052-.244.087-.488.14-.732.052-.244.07-.488.105-.732.07-.453.105-.94.157-1.394v-.157c.017-.28.017-.558.017-.837 0-.575-.052-1.132-.174-1.69-.122-.558-.296-1.097-.488-1.62-.244-.584-.54-1.132-.88-1.672-.314-.488-.662-.94-1.027-1.394-.366-.435-.767-.854-1.202-1.237-.192-.192-.4-.366-.592-.558-.21-.174-.4-.366-.627-.514-.227-.192-.47-.35-.714-.514-.244-.157-.488-.314-.767-.453-.279-.157-.558-.28-.854-.4-.279-.122-.575-.244-.854-.332-.296-.087-.575-.174-.871-.244-.314-.07-.627-.122-.94-.174L16.012.087h-.105z"/>
</svg> 